<?xml version="1.0" encoding="UTF-8" standalone="no"?>
<!-- Created with Inkscape (http://www.inkscape.org/) -->

<svg
   width="221.39565mm"
   height="32.622925mm"
   viewBox="0 0 221.39565 32.622925"
   version="1.1"
   id="svg5"
   inkscape:version="1.1.2 (b8e25be8, 2022-02-05)"
   sodipodi:docname="logo-light.svg"
   xmlns:inkscape="http://www.inkscape.org/namespaces/inkscape"
   xmlns:sodipodi="http://sodipodi.sourceforge.net/DTD/sodipodi-0.dtd"
   xmlns="http://www.w3.org/2000/svg"
   xmlns:svg="http://www.w3.org/2000/svg">
  <sodipodi:namedview
     id="namedview7"
     pagecolor="#ffffff"
     bordercolor="#666666"
     borderopacity="1.0"
     inkscape:pageshadow="2"
     inkscape:pageopacity="0.0"
     inkscape:pagecheckerboard="0"
     inkscape:document-units="mm"
     showgrid="false"
     fit-margin-top="5"
     fit-margin-left="5"
     fit-margin-right="5"
     fit-margin-bottom="5"
     inkscape:zoom="0.49295744"
     inkscape:cx="-373.25737"
     inkscape:cy="380.35738"
     inkscape:window-width="1792"
     inkscape:window-height="1067"
     inkscape:window-x="0"
     inkscape:window-y="25"
     inkscape:window-maximized="1"
     inkscape:current-layer="layer1" />
  <defs
     id="defs2">
    <rect
       x="135.91437"
       y="643.05756"
       width="849.97198"
       height="113.60007"
       id="rect6612" />
    <rect
       x="375.28595"
       y="281.97162"
       width="213.00014"
       height="119.68579"
       id="rect3120" />
  </defs>
  <g
     inkscape:label="Layer 1"
     inkscape:groupmode="layer"
     id="layer1"
     transform="translate(0.76886362,-42.458717)">
    <g
       aria-label="fast(conventional)!"
       transform="matrix(0.26458333,0,0,0.26458333,-32.203592,-123.98383)"
       id="text6610"
       style="font-size:40px;line-height:1.25;white-space:pre;shape-inside:url(#rect6612)">
      <path
         d="m 137.70606,719.73714 v -9.72799 h 8.53333 l 3.584,-21.84533 h -7.50933 v -9.64266 h 9.13066 l 1.45067,-8.53333 q 0.256,-1.792 0.85333,-3.584 0.59733,-1.792 1.62133,-3.41333 1.024,-1.62133 2.47467,-2.98667 1.536,-1.36533 3.24267,-2.13333 1.70666,-0.85333 3.49866,-1.19467 1.87733,-0.34133 3.75467,-0.34133 2.64533,0 5.03466,0.85333 2.47467,0.85334 3.92533,2.816 1.536,1.87734 1.96267,4.52267 0.42666,2.56 0,5.20533 -0.0853,0.17067 -0.17067,0.42667 0,0.17066 0,0.34133 h -11.69066 q 0,0 0,-0.0853 0.0853,-0.0853 0.0853,-0.0853 0,-0.42666 0.0853,-0.768 0.0853,-0.42666 0.0853,-0.85333 0,-0.42667 0,-0.768 0,-0.42667 -0.0853,-0.768 -0.0853,-0.42667 -0.34134,-0.768 -0.17066,-0.34133 -0.512,-0.34133 -0.512,0 -0.85333,0.512 -0.256,0.512 -0.512,1.024 -0.17067,0.512 -0.34133,1.024 -0.0853,0.512 -0.256,1.024 -0.0853,0.42666 -0.17067,0.93866 -0.0853,0.512 -0.17067,1.024 l -1.19466,6.82667 h 9.81333 v 9.81333 h -11.43466 l -3.584,21.75999 h 7.33866 v 9.72799 z"
         style="font-style:oblique;font-weight:900;font-size:85.3333px;font-family:'Iosevka Fixed Curly Slab';-inkscape-font-specification:'Iosevka Fixed Curly Slab, Heavy Oblique';fill:#36eee0"
         id="path1071" />
      <path
         d="m 190.86871,720.41981 q -1.792,0 -3.584,-0.42667 -1.70667,-0.42666 -3.072,-1.36533 -1.36533,-1.024 -2.304,-2.47467 -0.85333,-1.536 -1.28,-3.15733 -0.34133,-1.70666 -0.42667,-3.49866 0,-1.87734 0.34134,-3.66934 0.34133,-2.13333 1.28,-4.26666 0.93866,-2.21867 2.56,-3.84 1.70666,-1.62133 3.75466,-2.64533 2.13333,-1.10933 4.352,-1.70667 2.21866,-0.59733 4.352,-0.768 2.21866,-0.256 4.43733,-0.256 h 3.584 l 0.256,-1.45066 q 0.17066,-1.28 0.17066,-2.47467 0,-1.28 -0.512,-2.304 -0.42666,-1.10933 -1.45066,-1.70666 -1.024,-0.68267 -2.21867,-0.68267 -1.19466,0 -2.38933,0.512 -1.19467,0.42667 -2.048,1.36533 -0.85333,0.85334 -1.36533,2.048 -0.512,1.10933 -0.768,2.304 h -10.83733 q 0.34133,-2.048 1.10933,-4.01066 0.768,-1.96267 1.96267,-3.75467 1.19466,-1.792 2.816,-3.24266 1.62133,-1.536 3.49866,-2.47467 1.87733,-1.024 3.92533,-1.36533 2.048,-0.42667 4.096,-0.42667 2.304,0 4.608,0.42667 2.304,0.42666 4.26666,1.536 1.96267,1.024 3.328,2.73066 1.45067,1.70667 2.13334,3.84 0.768,2.048 0.768,4.43733 0,2.38933 -0.34134,4.69333 l -2.98666,17.664 h 1.62133 v 9.72799 H 200.3407 l 1.024,-6.31466 q -0.85333,1.45066 -1.96266,2.816 -1.024,1.28 -2.47467,2.304 -1.36533,0.93866 -2.98667,1.36533 -1.53599,0.512 -3.07199,0.512 z m 3.41333,-9.04533 q 1.70666,0 3.328,-0.68267 1.70666,-0.768 2.90133,-2.13333 1.19467,-1.36533 1.792,-2.98667 0.68266,-1.62133 0.93866,-3.32799 l 0.17067,-0.85334 h -2.13333 q -0.93867,0 -1.96267,0.0853 -0.93866,0.0853 -1.87733,0.256 -0.93867,0.0853 -1.96267,0.42666 -0.93866,0.256 -1.87733,0.85334 -0.85333,0.512 -1.45066,1.36533 -0.512,0.85333 -0.59734,1.792 -0.17066,0.59733 -0.17066,1.19466 0,0.59734 0.0853,1.19467 0.0853,0.512 0.256,1.10933 0.17067,0.512 0.512,0.93867 0.34133,0.42667 0.85333,0.59733 0.59734,0.17067 1.19467,0.17067 z"
         style="font-style:oblique;font-weight:900;font-size:85.3333px;font-family:'Iosevka Fixed Curly Slab';-inkscape-font-specification:'Iosevka Fixed Curly Slab, Heavy Oblique';fill:#36eee0"
         id="path1073" />
      <path
         d="m 241.13002,720.41981 q -2.73067,0 -5.29067,-0.768 -2.55999,-0.85333 -4.18133,-2.816 l -0.512,2.90133 h -9.55733 l 2.56,-15.44532 h 9.55733 l -0.59733,3.83999 q -0.17067,0.93867 0.42667,1.70667 0.59733,0.68267 1.45066,1.024 0.85333,0.256 1.792,0.42667 1.024,0.0853 1.96267,0.0853 0.93866,0 1.87733,-0.0853 0.93867,-0.17067 1.792,-0.512 0.93866,-0.42667 1.62133,-1.10934 0.768,-0.768 0.93867,-1.70666 0.256,-1.36534 -0.42667,-2.47467 -0.68267,-1.19466 -1.70667,-1.96266 -1.024,-0.768 -2.21866,-1.28 -1.19467,-0.512 -2.47467,-0.93867 -1.19466,-0.42667 -2.38933,-0.93867 -1.10933,-0.59733 -2.13333,-1.36533 -1.024,-0.768 -1.96267,-1.62133 -0.85333,-0.93867 -1.62133,-1.96267 -0.68267,-1.10933 -1.19467,-2.304 -0.512,-1.19466 -0.768,-2.47466 -0.256,-1.28 -0.34133,-2.64533 0,-1.36534 0.256,-2.73067 0.17067,-1.36533 0.59733,-2.64533 0.512,-1.36534 1.19467,-2.64533 0.768,-1.28 1.792,-2.304 1.024,-1.10934 2.304,-1.792 1.28,-0.768 2.64533,-0.93867 1.45067,-0.256 2.816,-0.256 1.70667,0 3.328,0.256 1.70666,0.17067 3.15733,0.68267 1.536,0.512 2.90133,1.36533 1.45067,0.768 2.38933,1.96267 l 0.59734,-3.584 h 9.64266 l -2.56,15.44532 h -9.64266 l 0.68266,-3.83999 q 0.17067,-0.93867 -0.51199,-1.62134 -0.59734,-0.768 -1.45067,-1.024 -0.768,-0.34133 -1.792,-0.42666 -0.93867,-0.17067 -1.87733,-0.17067 -0.85334,0 -1.70667,0.17067 -0.85333,0.0853 -1.70666,0.512 -0.768,0.34133 -1.36534,1.10933 -0.59733,0.68267 -0.768,1.536 -0.256,1.36533 0.34134,2.56 0.68266,1.10933 1.62133,1.96266 1.024,0.768 2.21866,1.28 1.19467,0.42667 2.38934,0.93867 1.28,0.42667 2.38933,0.93867 1.19467,0.512 2.21866,1.28 1.024,0.68266 1.87734,1.62133 0.93866,0.93866 1.62133,1.96266 0.768,1.024 1.28,2.21867 0.59733,1.10933 0.85333,2.47467 0.34134,1.27999 0.34134,2.64533 0.0853,1.28 -0.17067,2.64533 -0.256,1.62133 -0.93867,3.15733 -0.59733,1.45067 -1.70666,2.816 -1.024,1.28 -2.47467,2.304 -1.45066,0.93867 -2.98666,1.536 -1.536,0.59733 -3.15734,0.768 -1.62133,0.256 -3.24266,0.256 z"
         style="font-style:oblique;font-weight:900;font-size:85.3333px;font-family:'Iosevka Fixed Curly Slab';-inkscape-font-specification:'Iosevka Fixed Curly Slab, Heavy Oblique';fill:#36eee0"
         id="path1075" />
      <path
         d="m 284.73533,720.41981 q -2.304,0 -4.43733,-0.68267 -2.13333,-0.59733 -3.66933,-2.048 -1.536,-1.45066 -2.38933,-3.41333 -0.85333,-2.048 -1.19467,-4.26666 -0.34133,-2.21867 -0.17066,-4.52267 0.17066,-2.304 0.512,-4.608 l 2.64533,-15.78666 h -6.74133 v -9.72799 h 8.36266 l 2.98667,-18.34666 h 11.77599 l -2.98666,18.34666 h 9.72799 v 9.72799 h -11.34933 l -2.90133,17.408 q -0.0853,0.768 -0.256,1.536 -0.0853,0.76799 -0.17067,1.53599 0,0.768 0,1.536 0.0853,0.768 0.17067,1.536 0.17067,0.768 0.512,1.45067 0.42667,0.59733 1.19467,0.59733 0.768,0 1.36533,-0.59733 0.59733,-0.68267 0.93867,-1.36533 0.34133,-0.68267 0.59733,-1.36534 0.34133,-0.768 0.512,-1.45066 0.256,-0.768 0.34133,-1.536 0.17067,-0.768 0.34133,-1.45067 0,-0.0853 0,-0.17066 0,-0.17067 0.0853,-0.256 h 11.60533 q 0,0.17066 -0.0853,0.42666 0,0.256 0,0.42667 -0.34133,2.21866 -1.024,4.26666 -0.68266,2.048 -1.792,4.01067 -1.10933,1.96266 -2.64533,3.75466 -1.536,1.70667 -3.49866,2.90134 -1.87734,1.10933 -4.096,1.62133 -2.13333,0.512 -4.26667,0.512 z"
         style="font-style:oblique;font-weight:900;font-size:85.3333px;font-family:'Iosevka Fixed Curly Slab';-inkscape-font-specification:'Iosevka Fixed Curly Slab, Heavy Oblique';fill:#36eee0"
         id="path1077" />
      <path
         d="m 333.80198,733.4758 q -3.41333,-1.96266 -6.22933,-4.69333 -2.73067,-2.73066 -4.864,-6.144 -2.13333,-3.32799 -3.41333,-7.08266 -1.19467,-3.75466 -1.70667,-7.85066 -0.512,-4.18133 -0.34133,-8.36267 0.256,-4.26666 0.93867,-8.36266 0.68266,-4.26666 1.87733,-8.53333 1.19467,-4.352 2.98666,-8.36266 1.792,-4.096 4.352,-7.936 2.64533,-3.92533 5.80267,-7.25333 3.15733,-3.328 6.82666,-6.05866 3.75467,-2.816 7.936,-4.864 l 5.29066,8.61866 q -3.328,1.792 -6.31466,4.18133 -2.98667,2.38934 -5.46133,5.20533 -2.47467,2.816 -4.52267,6.05867 -1.96266,3.15733 -3.41333,6.48533 -1.36533,3.328 -2.304,6.912 -0.93867,3.49866 -1.536,6.99733 -0.512,3.072 -0.768,6.22933 -0.17066,3.15733 0.0853,6.31466 0.256,3.15733 1.02399,6.05867 0.768,2.90133 2.13334,5.54666 1.45066,2.64533 3.41333,4.77866 1.96267,2.21867 4.43733,3.92534 z"
         style="font-style:oblique;font-weight:900;font-size:85.3333px;font-family:'Iosevka Fixed Curly Slab';-inkscape-font-specification:'Iosevka Fixed Curly Slab, Heavy Oblique';fill:#bcece0"
         id="path1079" />
      <path
         d="m 366.74064,720.41981 q -2.47467,0 -4.94933,-0.512 -2.38933,-0.512 -4.352,-1.792 -1.96266,-1.36533 -3.328,-3.328 -1.36533,-1.96267 -1.96266,-4.26666 -0.59734,-2.38934 -0.59734,-4.864 0.0853,-2.56 0.512,-5.12 l 1.70667,-10.24 q 0.256,-1.792 0.68267,-3.49866 0.512,-1.792 1.19466,-3.49867 0.768,-1.792 1.792,-3.41333 1.10933,-1.62133 2.56,-2.90133 1.45067,-1.28 3.24267,-1.792 1.87733,-0.512 3.66933,-0.512 1.70666,0 3.328,0.34133 1.70666,0.256 3.15733,0.93867 1.45066,0.59733 2.73066,1.62133 1.28,1.024 2.13334,2.38934 l 0.768,-4.608 h 10.32532 l -2.55999,15.44532 h -10.32533 q 0.17066,-1.19466 0.0853,-2.38933 -0.0853,-1.19466 -0.68267,-2.13333 -0.512,-0.93867 -1.62133,-1.36533 -1.024,-0.512 -2.13333,-0.512 -1.36533,0 -2.73067,0.68266 -1.28,0.59734 -2.13333,1.792 -0.85333,1.10934 -1.36533,2.38933 -0.42667,1.28 -0.59734,2.64534 l -1.70666,10.23999 q -0.17067,0.93867 -0.256,1.792 -0.0853,0.85333 -0.0853,1.792 0.0853,0.85333 0.256,1.70667 0.17066,0.85333 0.51199,1.62133 0.42667,0.68267 1.10934,1.19467 0.768,0.42666 1.62133,0.42666 1.36533,0 2.56,-0.768 1.28,-0.85333 2.048,-2.048 0.768,-1.19466 1.19466,-2.47466 0.512,-1.36533 0.768,-2.73067 h 11.69067 q -0.42667,2.304 -1.19467,4.43733 -0.768,2.13334 -1.96267,4.18134 -1.10933,2.04799 -2.73066,3.83999 -1.62133,1.792 -3.66933,3.072 -1.96267,1.19467 -4.26667,1.70667 -2.21866,0.512 -4.43733,0.512 z"
         style="font-style:oblique;font-weight:900;font-size:85.3333px;font-family:'Iosevka Fixed Curly Slab';-inkscape-font-specification:'Iosevka Fixed Curly Slab, Heavy Oblique';fill:#4c5270"
         id="path1081" />
      <path
         d="m 409.49262,720.41981 q -2.47467,0 -4.94934,-0.512 -2.47466,-0.512 -4.43733,-1.792 -1.96266,-1.36533 -3.328,-3.328 -1.28,-1.96267 -1.96266,-4.26666 -0.59734,-2.38934 -0.59734,-4.864 0.0853,-2.56 0.512,-5.12 l 1.70667,-10.24 q 0.34133,-2.13333 1.024,-4.18133 0.768,-2.048 1.96267,-3.92533 1.28,-1.96266 3.07199,-3.41333 1.792,-1.536 3.84,-2.47467 2.048,-0.93866 4.18133,-1.36533 2.13334,-0.512 4.26667,-0.512 2.56,0 4.94933,0.68267 2.38933,0.68266 4.352,1.96266 1.96266,1.28 3.328,3.24267 1.36533,1.96266 1.96266,4.352 0.59734,2.304 0.512,4.86399 0,2.47467 -0.42666,5.03467 l -1.62134,10.23999 q -0.42666,2.048 -1.10933,4.18134 -0.68267,2.048 -1.96266,3.92533 -1.28,1.87733 -3.072,3.41333 -1.70667,1.536 -3.75467,2.47467 -2.048,0.93866 -4.18133,1.28 -2.13333,0.34133 -4.26666,0.34133 z m 0.25599,-9.728 q 1.28,0 2.56,-0.68266 1.28,-0.68267 2.048,-1.792 0.85334,-1.19467 1.28,-2.47467 0.42667,-1.28 0.68267,-2.56 l 1.62133,-10.23999 q 0.17067,-0.93867 0.256,-1.87734 0.0853,-0.93866 0,-1.792 0,-0.93866 -0.17067,-1.79199 -0.17066,-0.85334 -0.68266,-1.536 -0.42667,-0.768 -1.28,-1.10934 -0.768,-0.42666 -1.70667,-0.42666 -1.28,0 -2.56,0.768 -1.19466,0.68266 -2.048,1.792 -0.76799,1.10933 -1.19466,2.38933 -0.42667,1.28 -0.59733,2.56 l -1.70667,10.23999 q -0.17067,0.93867 -0.256,1.87734 -0.0853,0.85333 -0.0853,1.79199 0.0853,0.85334 0.256,1.70667 0.256,0.85333 0.68266,1.62133 0.42667,0.768 1.19467,1.19467 0.768,0.34133 1.70666,0.34133 z"
         style="font-style:oblique;font-weight:900;font-size:85.3333px;font-family:'Iosevka Fixed Curly Slab';-inkscape-font-specification:'Iosevka Fixed Curly Slab, Heavy Oblique';fill:#4c5270"
         id="path1083" />
      <path
         d="m 433.64193,719.73714 v -9.72799 h 2.90133 l 4.096,-24.91733 h -1.536 v -9.72799 h 14.93333 l -0.68267,4.26666 q 0.59734,-1.10933 1.45067,-2.048 0.85333,-0.93866 1.87733,-1.62133 1.024,-0.768 2.21867,-1.024 1.19466,-0.256 2.38933,-0.256 2.13333,0 4.096,0.85333 2.048,0.85334 3.41333,2.38934 1.45067,1.536 2.13333,3.58399 0.68267,2.048 0.93867,4.18134 0.256,2.13333 0.0853,4.35199 -0.0853,2.21867 -0.512,4.52267 l -2.56,15.44533 h 1.62134 v 9.72799 h -16.21333 v -9.72799 h 2.816 l 2.816,-17.06666 q 0.17066,-0.85334 0.256,-1.70667 0.0853,-0.93867 0.0853,-1.792 0,-0.93867 -0.0853,-1.70666 -0.0853,-0.85334 -0.42667,-1.62134 -0.34133,-0.768 -1.10933,-1.19466 -0.68267,-0.512 -1.536,-0.512 -1.10934,0 -2.13333,0.59733 -1.024,0.512 -1.792,1.45067 -0.68267,0.85333 -1.10934,1.96266 -0.34133,1.10933 -0.512,2.13333 l -3.24266,19.456 h 1.536 v 9.72799 z"
         style="font-style:oblique;font-weight:900;font-size:85.3333px;font-family:'Iosevka Fixed Curly Slab';-inkscape-font-specification:'Iosevka Fixed Curly Slab, Heavy Oblique';fill:#4c5270"
         id="path1085" />
      <path
         d="m 486.97525,719.73714 q -0.59733,-2.816 -1.19467,-5.632 -0.512,-2.81599 -1.024,-5.63199 -0.512,-2.90134 -0.93866,-5.71733 -0.34134,-2.90134 -0.59734,-5.80267 -0.256,-2.90133 -0.34133,-5.888 -0.0853,-2.98666 0.42667,-5.97333 h -1.536 v -9.72799 h 16.21332 v 9.72799 h -2.90133 q -0.42666,2.73067 -0.512,5.54667 0,2.73066 0.0853,5.46133 0.17066,2.73066 0.42666,5.46133 0.256,2.64533 0.59734,5.29066 1.28,-2.64533 2.47466,-5.29066 1.28,-2.73067 2.304,-5.46133 1.10933,-2.73067 2.048,-5.46133 0.93867,-2.73067 1.45067,-5.54667 h -1.62134 v -9.72799 h 16.21333 v 9.72799 h -2.816 q -0.512,2.98667 -1.62133,5.97333 -1.024,2.98667 -2.21867,5.888 -1.19466,2.90133 -2.56,5.80267 -1.36533,2.81599 -2.816,5.71733 -1.36533,2.816 -2.90133,5.63199 -1.536,2.816 -3.072,5.632 z"
         style="font-style:oblique;font-weight:900;font-size:85.3333px;font-family:'Iosevka Fixed Curly Slab';-inkscape-font-specification:'Iosevka Fixed Curly Slab, Heavy Oblique';fill:#4c5270"
         id="path1087" />
      <path
         d="m 537.8339,720.41981 q -2.56,0 -5.03466,-0.512 -2.47467,-0.512 -4.52267,-1.792 -1.96266,-1.28 -3.328,-3.24267 -1.36533,-1.96266 -2.04799,-4.26666 -0.68267,-2.38933 -0.68267,-4.94933 0.0853,-2.56 0.512,-5.12 l 1.70666,-10.24 q 0.34134,-2.04799 1.024,-4.09599 0.768,-2.13334 1.96267,-4.01067 1.28,-1.87733 2.98667,-3.41333 1.79199,-1.536 3.83999,-2.47467 2.048,-0.93866 4.18134,-1.28 2.21866,-0.34133 4.35199,-0.34133 2.47467,0 4.864,0.512 2.47467,0.512 4.43733,1.87733 1.96267,1.28 3.328,3.24267 1.36533,1.96266 1.96267,4.352 0.59733,2.304 0.512,4.86399 0,2.47467 -0.42667,5.03467 l -1.19467,7.50933 H 533.4819 q -0.17066,1.024 -0.256,2.048 -0.0853,1.024 0,2.048 0.0853,1.024 0.34134,1.96266 0.256,0.93867 0.85333,1.70667 0.59733,0.768 1.45067,1.19467 0.93866,0.34133 1.96266,0.34133 1.10934,0 2.13333,-0.256 1.10934,-0.34133 2.048,-1.024 0.93867,-0.68267 1.536,-1.62133 0.68267,-1.024 0.93867,-2.13334 h 10.83733 q -0.68267,2.98667 -2.304,5.71734 -1.536,2.64533 -4.01067,4.69333 -2.38933,1.96266 -5.37599,2.816 -2.90134,0.85333 -5.80267,0.85333 z m 8.96,-27.39199 q 0.17067,-1.024 0.256,-2.048 0.0853,-1.024 0,-1.96267 -0.0853,-1.02399 -0.34133,-1.96266 -0.256,-1.024 -0.85334,-1.792 -0.512,-0.768 -1.45066,-1.10933 -0.85334,-0.42667 -1.87734,-0.42667 -1.45066,0 -2.90133,0.68267 -1.36533,0.68266 -2.304,1.96266 -0.93866,1.19467 -1.45066,2.64533 -0.512,1.36534 -0.68267,2.816 l -0.256,1.19467 z"
         style="font-style:oblique;font-weight:900;font-size:85.3333px;font-family:'Iosevka Fixed Curly Slab';-inkscape-font-specification:'Iosevka Fixed Curly Slab, Heavy Oblique';fill:#4c5270"
         id="path1089" />
      <path
         d="m 561.6419,719.73714 v -9.72799 h 2.90133 l 4.096,-24.91733 h -1.536 v -9.72799 h 14.93333 l -0.68267,4.26666 q 0.59733,-1.10933 1.45067,-2.048 0.85333,-0.93866 1.87733,-1.62133 1.024,-0.768 2.21867,-1.024 1.19466,-0.256 2.38933,-0.256 2.13333,0 4.096,0.85333 2.048,0.85334 3.41333,2.38934 1.45066,1.536 2.13333,3.58399 0.68267,2.048 0.93867,4.18134 0.256,2.13333 0.0853,4.35199 -0.0853,2.21867 -0.512,4.52267 l -2.56,15.44533 h 1.62133 v 9.72799 h -16.21332 v -9.72799 h 2.816 l 2.816,-17.06666 q 0.17066,-0.85334 0.256,-1.70667 0.0853,-0.93867 0.0853,-1.792 0,-0.93867 -0.0853,-1.70666 -0.0853,-0.85334 -0.42667,-1.62134 -0.34133,-0.768 -1.10933,-1.19466 -0.68267,-0.512 -1.536,-0.512 -1.10934,0 -2.13334,0.59733 -1.024,0.512 -1.79199,1.45067 -0.68267,0.85333 -1.10934,1.96266 -0.34133,1.10933 -0.512,2.13333 l -3.24266,19.456 h 1.536 v 9.72799 z"
         style="font-style:oblique;font-weight:900;font-size:85.3333px;font-family:'Iosevka Fixed Curly Slab';-inkscape-font-specification:'Iosevka Fixed Curly Slab, Heavy Oblique';fill:#4c5270"
         id="path1091" />
      <path
         d="m 626.06852,720.41981 q -2.304,0 -4.43733,-0.68267 -2.13334,-0.59733 -3.66934,-2.048 -1.536,-1.45066 -2.38933,-3.41333 -0.85333,-2.048 -1.19466,-4.26666 -0.34134,-2.21867 -0.17067,-4.52267 0.17067,-2.304 0.512,-4.608 l 2.64533,-15.78666 h -6.74133 v -9.72799 h 8.36266 l 2.98667,-18.34666 h 11.77599 l -2.98666,18.34666 h 9.72799 v 9.72799 h -11.34932 l -2.90134,17.408 q -0.0853,0.768 -0.256,1.536 -0.0853,0.76799 -0.17066,1.53599 0,0.768 0,1.536 0.0853,0.768 0.17066,1.536 0.17067,0.768 0.512,1.45067 0.42667,0.59733 1.19467,0.59733 0.768,0 1.36533,-0.59733 0.59734,-0.68267 0.93867,-1.36533 0.34133,-0.68267 0.59733,-1.36534 0.34133,-0.768 0.512,-1.45066 0.256,-0.768 0.34133,-1.536 0.17067,-0.768 0.34134,-1.45067 0,-0.0853 0,-0.17066 0,-0.17067 0.0853,-0.256 h 11.60533 q 0,0.17066 -0.0853,0.42666 0,0.256 0,0.42667 -0.34134,2.21866 -1.024,4.26666 -0.68267,2.048 -1.792,4.01067 -1.10934,1.96266 -2.64533,3.75466 -1.536,1.70667 -3.49867,2.90134 -1.87733,1.10933 -4.096,1.62133 -2.13333,0.512 -4.26666,0.512 z"
         style="font-style:oblique;font-weight:900;font-size:85.3333px;font-family:'Iosevka Fixed Curly Slab';-inkscape-font-specification:'Iosevka Fixed Curly Slab, Heavy Oblique';fill:#4c5270"
         id="path1093" />
      <path
         d="m 650.47385,719.73714 v -9.72799 h 10.32533 l 4.096,-24.91733 h -7.85067 v -9.72799 h 21.24799 l -5.71733,34.64532 h 7.76533 v 9.72799 z m 23.46665,-49.49331 q -1.87733,0 -3.58399,-0.59733 -1.62134,-0.68267 -2.73067,-2.048 -1.024,-1.45067 -1.28,-3.24267 -0.256,-1.792 0,-3.66933 0.256,-1.28 0.85333,-2.38933 0.68267,-1.19467 1.792,-1.96267 1.10934,-0.85333 2.38934,-1.10933 1.28,-0.34133 2.55999,-0.34133 1.792,0 3.49867,0.68266 1.70667,0.59734 2.73067,2.048 1.02399,1.36533 1.27999,3.15733 0.34134,1.792 0,3.66934 -0.256,1.27999 -0.93866,2.47466 -0.59733,1.10933 -1.70667,1.96267 -1.10933,0.768 -2.38933,1.10933 -1.28,0.256 -2.47467,0.256 z"
         style="font-style:oblique;font-weight:900;font-size:85.3333px;font-family:'Iosevka Fixed Curly Slab';-inkscape-font-specification:'Iosevka Fixed Curly Slab, Heavy Oblique';fill:#4c5270"
         id="path1095" />
      <path
         d="m 708.15916,720.41981 q -2.47466,0 -4.94933,-0.512 -2.47466,-0.512 -4.43733,-1.792 -1.96266,-1.36533 -3.328,-3.328 -1.28,-1.96267 -1.96266,-4.26666 -0.59734,-2.38934 -0.59734,-4.864 0.0853,-2.56 0.512,-5.12 l 1.70667,-10.24 q 0.34133,-2.13333 1.024,-4.18133 0.768,-2.048 1.96267,-3.92533 1.28,-1.96266 3.07199,-3.41333 1.792,-1.536 3.84,-2.47467 2.048,-0.93866 4.18133,-1.36533 2.13334,-0.512 4.26667,-0.512 2.56,0 4.94933,0.68267 2.38933,0.68266 4.352,1.96266 1.96266,1.28 3.328,3.24267 1.36533,1.96266 1.96266,4.352 0.59734,2.304 0.512,4.86399 0,2.47467 -0.42666,5.03467 l -1.62134,10.23999 q -0.42666,2.048 -1.10933,4.18134 -0.68267,2.048 -1.96267,3.92533 -1.27999,1.87733 -3.07199,3.41333 -1.70667,1.536 -3.75467,2.47467 -2.048,0.93866 -4.18133,1.28 -2.13333,0.34133 -4.26667,0.34133 z m 0.256,-9.728 q 1.28,0 2.56,-0.68266 1.28,-0.68267 2.048,-1.792 0.85334,-1.19467 1.28,-2.47467 0.42667,-1.28 0.68267,-2.56 l 1.62133,-10.23999 q 0.17067,-0.93867 0.256,-1.87734 0.0853,-0.93866 0,-1.792 0,-0.93866 -0.17067,-1.79199 -0.17066,-0.85334 -0.68266,-1.536 -0.42667,-0.768 -1.28,-1.10934 -0.768,-0.42666 -1.70667,-0.42666 -1.28,0 -2.56,0.768 -1.19466,0.68266 -2.048,1.792 -0.768,1.10933 -1.19466,2.38933 -0.42667,1.28 -0.59733,2.56 l -1.70667,10.23999 q -0.17067,0.93867 -0.256,1.87734 -0.0853,0.85333 -0.0853,1.79199 0.0853,0.85334 0.256,1.70667 0.256,0.85333 0.68266,1.62133 0.42667,0.768 1.19467,1.19467 0.768,0.34133 1.70666,0.34133 z"
         style="font-style:oblique;font-weight:900;font-size:85.3333px;font-family:'Iosevka Fixed Curly Slab';-inkscape-font-specification:'Iosevka Fixed Curly Slab, Heavy Oblique';fill:#4c5270"
         id="path1097" />
      <path
         d="m 732.30847,719.73714 v -9.72799 h 2.90133 l 4.096,-24.91733 h -1.536 v -9.72799 h 14.93332 l -0.68266,4.26666 q 0.59733,-1.10933 1.45066,-2.048 0.85334,-0.93866 1.87734,-1.62133 1.024,-0.768 2.21866,-1.024 1.19467,-0.256 2.38933,-0.256 2.13334,0 4.096,0.85333 2.048,0.85334 3.41333,2.38934 1.45067,1.536 2.13334,3.58399 0.68266,2.048 0.93866,4.18134 0.256,2.13333 0.0853,4.35199 -0.0853,2.21867 -0.512,4.52267 l -2.56,15.44533 h 1.62133 v 9.72799 h -16.21333 v -9.72799 h 2.816 l 2.816,-17.06666 q 0.17067,-0.85334 0.256,-1.70667 0.0853,-0.93867 0.0853,-1.792 0,-0.93867 -0.0853,-1.70666 -0.0853,-0.85334 -0.42667,-1.62134 -0.34133,-0.768 -1.10933,-1.19466 -0.68267,-0.512 -1.536,-0.512 -1.10933,0 -2.13333,0.59733 -1.024,0.512 -1.792,1.45067 -0.68267,0.85333 -1.10933,1.96266 -0.34134,1.10933 -0.512,2.13333 l -3.24267,19.456 h 1.536 v 9.72799 z"
         style="font-style:oblique;font-weight:900;font-size:85.3333px;font-family:'Iosevka Fixed Curly Slab';-inkscape-font-specification:'Iosevka Fixed Curly Slab, Heavy Oblique';fill:#4c5270"
         id="path1099" />
      <path
         d="m 788.20181,720.41981 q -1.792,0 -3.584,-0.42667 -1.70666,-0.42666 -3.07199,-1.36533 -1.36534,-1.024 -2.304,-2.47467 -0.85334,-1.536 -1.28,-3.15733 -0.34134,-1.70666 -0.42667,-3.49866 0,-1.87734 0.34133,-3.66934 0.34134,-2.13333 1.28,-4.26666 0.93867,-2.21867 2.56,-3.84 1.70667,-1.62133 3.75467,-2.64533 2.13333,-1.10933 4.352,-1.70667 2.21866,-0.59733 4.35199,-0.768 2.21867,-0.256 4.43734,-0.256 h 3.58399 l 0.256,-1.45066 q 0.17067,-1.28 0.17067,-2.47467 0,-1.28 -0.512,-2.304 -0.42667,-1.10933 -1.45067,-1.70666 -1.02399,-0.68267 -2.21866,-0.68267 -1.19467,0 -2.38933,0.512 -1.19467,0.42667 -2.048,1.36533 -0.85334,0.85334 -1.36534,2.048 -0.512,1.10933 -0.76799,2.304 h -10.83733 q 0.34133,-2.048 1.10933,-4.01066 0.768,-1.96267 1.96266,-3.75467 1.19467,-1.792 2.816,-3.24266 1.62134,-1.536 3.49867,-2.47467 1.87733,-1.024 3.92533,-1.36533 2.048,-0.42667 4.096,-0.42667 2.304,0 4.608,0.42667 2.304,0.42666 4.26666,1.536 1.96267,1.024 3.328,2.73066 1.45067,1.70667 2.13333,3.84 0.768,2.048 0.768,4.43733 0,2.38933 -0.34133,4.69333 l -2.98667,17.664 h 1.62134 v 9.72799 h -14.16533 l 1.024,-6.31466 q -0.85333,1.45066 -1.96267,2.816 -1.024,1.28 -2.47466,2.304 -1.36534,0.93866 -2.98667,1.36533 -1.536,0.512 -3.072,0.512 z m 3.41334,-9.04533 q 1.70666,0 3.32799,-0.68267 1.70667,-0.768 2.90134,-2.13333 1.19466,-1.36533 1.792,-2.98667 0.68266,-1.62133 0.93866,-3.32799 l 0.17067,-0.85334 h -2.13333 q -0.93867,0 -1.96267,0.0853 -0.93867,0.0853 -1.87733,0.256 -0.93867,0.0853 -1.96267,0.42666 -0.93866,0.256 -1.87733,0.85334 -0.85333,0.512 -1.45067,1.36533 -0.512,0.85333 -0.59733,1.792 -0.17067,0.59733 -0.17067,1.19466 0,0.59734 0.0853,1.19467 0.0853,0.512 0.256,1.10933 0.17066,0.512 0.512,0.93867 0.34133,0.42667 0.85333,0.59733 0.59733,0.17067 1.19467,0.17067 z"
         style="font-style:oblique;font-weight:900;font-size:85.3333px;font-family:'Iosevka Fixed Curly Slab';-inkscape-font-specification:'Iosevka Fixed Curly Slab, Heavy Oblique';fill:#4c5270"
         id="path1101" />
      <path
         d="m 821.14044,719.73714 v -9.72799 h 10.32533 l 7.08267,-43.26399 h -7.76533 v -9.72799 h 21.16265 l -8.70399,52.99198 h 7.76533 v 9.72799 z"
         style="font-style:oblique;font-weight:900;font-size:85.3333px;font-family:'Iosevka Fixed Curly Slab';-inkscape-font-specification:'Iosevka Fixed Curly Slab, Heavy Oblique';fill:#4c5270"
         id="path1103" />
      <path
         d="m 862.52707,733.4758 -5.29066,-8.61866 q 3.32799,-1.792 6.31466,-4.18133 2.98666,-2.38933 5.46133,-5.20533 2.47467,-2.816 4.43733,-5.97333 2.048,-3.24267 3.41333,-6.57067 1.45067,-3.328 2.38934,-6.82666 0.93866,-3.584 1.536,-7.08267 0.512,-3.07199 0.68266,-6.22933 0.256,-3.15733 0,-6.31466 -0.256,-3.15733 -1.024,-6.05866 -0.768,-2.90134 -2.21866,-5.54667 -1.36534,-2.64533 -3.328,-4.77866 -1.96267,-2.21867 -4.43733,-3.92533 l 6.22933,-8.192 q 3.41333,1.96266 6.14399,4.69333 2.816,2.73067 4.94934,6.144 2.13333,3.328 3.32799,7.08266 1.28,3.75467 1.792,7.936 0.512,4.096 0.256,8.36266 -0.17066,4.18133 -0.85333,8.27733 -0.68267,4.26667 -1.87733,8.61866 -1.19467,4.26667 -2.98667,8.36267 -1.792,4.01066 -4.43733,7.93599 -2.56,3.84 -5.71733,7.168 -3.15733,3.328 -6.912,6.05866 -3.75466,2.816 -7.85066,4.864 z"
         style="font-style:oblique;font-weight:900;font-size:85.3333px;font-family:'Iosevka Fixed Curly Slab';-inkscape-font-specification:'Iosevka Fixed Curly Slab, Heavy Oblique';fill:#bcece0"
         id="path1105" />
      <path
         d="m 918.67642,694.64915 6.22933,-37.63198 h 11.77599 l -6.22933,37.63198 z m 3.072,25.77066 q -2.048,0 -3.92534,-0.68267 -1.79199,-0.768 -2.90133,-2.21866 -1.10933,-1.536 -1.45066,-3.49867 -0.256,-1.96266 0,-4.01066 0.256,-1.36534 0.93866,-2.64534 0.768,-1.28 1.96267,-2.13333 1.19466,-0.93866 2.56,-1.19466 1.45066,-0.34134 2.816,-0.34134 1.96266,0 3.75466,0.768 1.87733,0.68267 2.98667,2.21867 1.10933,1.45066 1.45066,3.41333 0.34134,1.96267 0,4.01066 -0.256,1.36534 -1.024,2.64534 -0.68266,1.28 -1.87733,2.21866 -1.19467,0.85334 -2.56,1.10934 -1.36533,0.34133 -2.73066,0.34133 z"
         style="font-style:oblique;font-weight:900;font-size:85.3333px;font-family:'Iosevka Fixed Curly Slab';-inkscape-font-specification:'Iosevka Fixed Curly Slab, Heavy Oblique';fill:#f652a0"
         id="path1107" />
    </g>
  </g>
</svg>
